# xmcd
#
# Track frame offsets: 
#        187
#        10962
#        27787
#        44312
#        62902
#        76170
#        89282
#        101665
#        114592
#        129280
#        145785
#
# Disc length: 2166 seconds
#
# Revision: 10
# Processed by: cddbd v1.5.2PL0 Copyright (c) Steve Scherf et al.
# Submitted via: ExactAudioCopyFreeDBPlugin 1.0
#
DISCID=8508740b
DTITLE=The Commitments - The Commitments:  Original Motion Picture Sou
DTITLE=ndtrack
DYEAR=1992
DGENRE=Soul
TTITLE0=Hard to Handle [hit for Otis Redding]
TTITLE1=Grits Ain't Groceries [hit for Little Milton]
TTITLE2=I Thank You [hit for Sam and Dave]
TTITLE3=That's the Way Love Is [hit for Marvin Gaye]
TTITLE4=Show Me [hit for Joe Tex]
TTITLE5=Saved [hit for LaVern Baker]
TTITLE6=Too Many Fish in the Sea [hit for The Marvelettes]
TTITLE7=Fa-Fa-Fa-Fa-Fa (Sad Song) [hit for Otis Redding]
TTITLE8=Land of a Thousand Dances [hit for Wilson Pickett]
TTITLE9=Nowhere to Run [hit for Martha and the Vandellas]
TTITLE10=Bring it on Home to Me [hit for Sam Cooke]
EXTD=YEAR: 1992
EXTT0=
EXTT1=
EXTT2=
EXTT3=
EXTT4=
EXTT5=
EXTT6=
EXTT7=
EXTT8=
EXTT9=
EXTT10=
PLAYORDER=
